<svg xmlns="http://www.w3.org/2000/svg" version="1.1" xmlns:xlink="http://www.w3.org/1999/xlink" width="1500" height="1500" viewBox="0 0 1500 1500"><rect width="1500" height="1500" x="0" y="0" id="background" stroke="transparent" fill="#ffffff"></rect><svg xml:space="preserve" width="1000" height="1000" data-version="2" data-id="lg_Sj8r2aumnSXPMt3Pfw" viewBox="0 0 563 155" x="250" y="250"><rect width="100%" height="100%" fill="transparent"></rect><path d="M50.6 54.515q1.58-6.08 3.1-12.02 1.52-5.94 3.03-11.94 1.52-6.01 2.97-11.95h25.74v35.91ZM5.32 65.995v-47.65l45.14-10.83v46.34q0 2.5 1.13 4.35 1.12 1.85 3.16 3.1 2.05 1.26 4.82 1.92 2.77.66 6.21.66 3.82 0 7.78-1.19 3.96-1.19 7.2-3.3 3.23-2.11 4.68-4.88v40.12q-5.67 4.49-14.65 6.67-8.97 2.18-17.95 2.18-13.6 0-24.35-4.42-10.76-4.43-16.97-12.81-6.2-8.38-6.2-20.26"></path><rect width="80.12" height="95.97" x="-40.06" y="-47.98" fill="none" rx="0" ry="0" transform="translate(45.88 56)"></rect><path d="M136.4 18.605v81.84H90.72v-81.84Zm-.14 50.43 7.13-35.51q1.19-5.68 4.69-9.44 3.5-3.76 8.25-5.74 4.75-1.98 9.77-2.44 5.01-.47 9.24.39 4.22.86 6.73 2.84l-10.03 49.1q-3.83-3.16-9.31-4.35-5.48-1.19-11.02-.86-5.55.33-9.77 1.91-4.22 1.59-5.68 4.1"></path><rect width="91.35" height="84.86" x="-45.67" y="-42.43" fill="none" rx="0" ry="0" transform="translate(136.9 58.52)"></rect><path d="M185.5 23.355v31.55q5.94-3.83 13.86-5.81 7.92-1.98 15.71-1.98 5.01 0 9.57.93 4.55.92 8.05 2.84 3.5 1.91 5.54 4.88 2.05 2.97 2.05 7.06v1.19q-1.98-2.64-5.08-4.75t-7-3.57q-3.89-1.45-8.25-2.17-4.35-.73-8.97-.73-7.13 0-12.68 1.39-5.54 1.38-9.57 3.89-4.02 2.51-6.66 5.81-2.64 3.3-3.96 6.99-1.32 3.7-1.32 7.53 0 6.33 2.64 11.09 2.64 4.75 7.19 7.92 4.56 3.16 10.3 4.81 5.74 1.65 11.94 1.65 5.15 0 10.37-.99 5.21-.99 9.96-3.36 2.77-6.47 5.61-12.94 2.84-6.47 5.61-12.93-1.58 3.82-4.62 4.75-3.03.92-5.41.92-4.88 0-7.52-2.04-2.64-2.05-2.64-4.56t2.57-4.49q2.57-1.98 7.59-1.98 2.24 0 4.49.6 2.24.59 3.83 2.04 1.58 1.46 1.58 3.83v27.72h46.2v-51.21q0-8.72-4.75-15.18-4.75-6.47-12.87-10.83-8.12-4.35-18.42-6.47-10.29-2.11-21.38-2.11-11.35 0-22.64 2.18-11.28 2.18-20.92 6.53"></path><rect width="109.69" height="89.23" x="-54.84" y="-44.62" fill="none" rx="0" ry="0" transform="translate(232.13 59.76)"></rect><path d="M396.3 18.605q-3.16 10.3-6.33 20.53t-6.27 20.39q-3.1 10.17-6.27 20.4-3.17 10.23-6.34 20.52h-62.96q-2.51-8.18-5.02-16.37-2.51-8.18-5.01-16.36-2.51-8.19-5.09-16.37-2.57-8.19-5.08-16.37-2.51-8.18-5.01-16.37h48.44q.79 4.62 1.52 9.18.72 4.55 1.52 9.17.79 4.62 1.51 9.24.73 4.62 1.52 9.24t1.52 9.17q.73 4.56 1.52 9.18.13.66.2.99.06.33.19.33.14 0 .2-.33.07-.33.2-.99.79-4.62 1.52-9.18.72-4.55 1.52-9.17.79-4.62 1.51-9.24.73-4.62 1.52-9.24t1.52-9.17q.73-4.56 1.52-9.18Z"></path><rect width="113.38" height="81.84" x="-56.69" y="-40.92" fill="none" rx="0" ry="0" transform="translate(340.11 60.02)"></rect><path d="M450.56 70.615q6.99 0 10.82-2.51t3.96-6.86l40.79 13.33q-2.38 8.32-10.1 15.11-7.72 6.8-19.47 10.76t-26.27 3.96q-12.41 0-23.16-2.77-10.76-2.77-18.88-8.38-8.12-5.61-12.74-14.06-4.62-8.45-4.62-19.67 0-11.22 4.62-19.67 4.62-8.44 12.74-14.05 8.12-5.61 18.94-8.39 10.83-2.77 23.1-2.77 12.54 0 23.04 2.77 10.49 2.78 18.08 8.52 7.59 5.74 11.75 14.52t4.16 20.79h-72.08v.13q0 1.98 1.06 3.7 1.06 1.71 2.97 2.97 1.91 1.25 4.75 1.91 2.84.66 6.54.66m-.27-22.57q-6.47 0-10.69 2.31t-4.22 6.53v.27h29.56q.14 0 .14-.07v-.2q0-2.11-1.13-3.76-1.12-1.65-3.1-2.77t-4.68-1.72q-2.71-.59-5.88-.59"></path><rect width="116.43" height="89.76" x="-58.22" y="-44.88" fill="none" rx="0" ry="0" transform="translate(449.6 60.02)"></rect><path d="M511.01 100.445v-99h45.67v99Z"></path><rect width="45.67" height="99" x="-22.84" y="-49.5" fill="none" rx="0" ry="0" transform="translate(534.35 51.45)"></rect><path d="M26.04 129.025q2.05 0 3.51.91 1.47.91 2.24 2.54.78 1.64.78 3.82v1.51H21.48q.04 2.82 1.41 4.3 1.36 1.48 3.83 1.48 1.53 0 2.7-.27 1.17-.28 2.43-.83v2.14q-1.22.55-2.41.79-1.19.25-2.82.25-2.31 0-4.03-.94-1.73-.95-2.68-2.78-.95-1.83-.95-4.48 0-2.59.87-4.49.87-1.9 2.46-2.92 1.59-1.03 3.75-1.03m-.03 2q-1.95 0-3.11 1.27t-1.38 3.56h8.5q-.02-1.44-.45-2.53-.43-1.09-1.31-1.7-.88-.6-2.25-.6"></path><rect width="13.61" height="16.64" x="-6.8" y="-8.32" fill="none" rx="0" ry="0" transform="translate(26.27 137.84)"></rect><path d="m40.52 137.155-5.55-7.83h2.78l4.24 6.18 4.22-6.18h2.75l-5.55 7.83 5.86 8.22h-2.79l-4.49-6.55-4.53 6.55h-2.75Z"></path><rect width="14.56" height="16.05" x="-7.28" y="-8.03" fill="none" rx="0" ry="0" transform="translate(42.49 137.85)"></rect><path d="M59.95 129.025q3 0 4.79 2.07 1.78 2.06 1.78 6.21 0 2.74-.82 4.6-.82 1.86-2.3 2.81-1.49.95-3.51.95-1.28 0-2.24-.33-.97-.34-1.66-.91-.69-.57-1.14-1.25h-.18q.05.57.11 1.38.07.81.07 1.41v6.59H52.4v-23.23h2.01l.32 2.37h.12q.47-.73 1.14-1.34.68-.61 1.65-.97.97-.36 2.31-.36m-.43 2.05q-1.67 0-2.69.65-1.01.64-1.48 1.92-.47 1.29-.5 3.22v.47q0 2.03.45 3.44.44 1.41 1.47 2.14 1.04.73 2.78.73 1.49 0 2.49-.8 1-.81 1.49-2.25t.49-3.32q0-2.84-1.11-4.52-1.1-1.68-3.39-1.68"></path><rect width="14.12" height="23.53" x="-7.06" y="-11.77" fill="none" rx="0" ry="0" transform="translate(59.96 141.29)"></rect><path d="M73.2 145.375h-2.44v-22.79h2.44Z"></path><rect width="2.44" height="22.79" x="-1.22" y="-11.39" fill="none" rx="0" ry="0" transform="translate(72.48 134.48)"></rect><path d="M92.17 137.315q0 1.98-.51 3.53-.51 1.56-1.48 2.63-.97 1.07-2.34 1.63-1.37.56-3.09.56-1.62 0-2.96-.56-1.34-.56-2.31-1.63-.97-1.07-1.51-2.63-.53-1.55-.53-3.53 0-2.63.89-4.49.89-1.85 2.56-2.82 1.66-.98 3.96-.98 2.2 0 3.84.98 1.65.99 2.57 2.84.91 1.85.91 4.47m-12.21 0q0 1.94.51 3.36t1.58 2.2q1.07.77 2.75.77 1.67 0 2.75-.77 1.08-.78 1.59-2.2.51-1.42.51-3.36 0-1.91-.51-3.31-.51-1.4-1.58-2.16-1.07-.77-2.77-.77-2.5 0-3.67 1.66-1.16 1.65-1.16 4.58"></path><rect width="14.73" height="16.64" x="-7.37" y="-8.32" fill="none" rx="0" ry="0" transform="translate(85.3 137.84)"></rect><path d="M103.67 129.025q.49 0 1.01.05.53.06.94.14l-.31 2.26q-.39-.1-.88-.16-.48-.06-.9-.06-.97 0-1.83.39-.86.39-1.5 1.11-.64.73-1.01 1.74-.37 1.02-.37 2.27v8.61h-2.44v-16.05h2.02l.26 2.96h.1q.5-.9 1.21-1.64.7-.74 1.63-1.18.93-.44 2.07-.44"></path><rect width="9.24" height="16.35" x="-4.62" y="-8.18" fill="none" rx="0" ry="0" transform="translate(101.5 137.7)"></rect><path d="M114.82 129.025q2.05 0 3.51.91 1.47.91 2.25 2.54.77 1.64.77 3.82v1.51h-11.09q.05 2.82 1.41 4.3 1.36 1.48 3.84 1.48 1.52 0 2.69-.27 1.17-.28 2.43-.83v2.14q-1.21.55-2.4.79-1.2.25-2.82.25-2.32 0-4.04-.94-1.72-.95-2.67-2.78-.96-1.83-.96-4.48 0-2.59.88-4.49.87-1.9 2.46-2.92 1.59-1.03 3.74-1.03m-.03 2q-1.95 0-3.11 1.27-1.15 1.27-1.37 3.56h8.49q-.01-1.44-.44-2.53-.44-1.09-1.31-1.7-.88-.6-2.26-.6"></path><rect width="13.61" height="16.64" x="-6.8" y="-8.32" fill="none" rx="0" ry="0" transform="translate(115.05 137.84)"></rect><path d="M138.46 143.675q.6 0 1.23-.1t1.03-.25v1.89q-.43.19-1.18.32-.76.13-1.47.13-1.28 0-2.32-.44-1.04-.45-1.66-1.52-.62-1.07-.62-2.96v-9.52h-2.29v-1.19l2.3-.95.97-3.48h1.46v3.72h4.71v1.9h-4.71v9.45q0 1.51.7 2.25.69.75 1.85.75"></path><rect width="9.54" height="20.06" x="-4.77" y="-10.03" fill="none" rx="0" ry="0" transform="translate(136.45 136.13)"></rect><path d="M146.4 122.585v6.81q0 .59-.03 1.18t-.1 1.09h.16q.5-.85 1.27-1.43t1.75-.88q.98-.3 2.08-.3 1.93 0 3.23.62 1.29.61 1.95 1.9.65 1.29.65 3.34v10.46h-2.4v-10.3q0-2-.92-3t-2.8-1q-1.79 0-2.85.68-1.07.69-1.53 2-.46 1.32-.46 3.23v8.39h-2.43v-22.79Z"></path><rect width="13.39" height="22.79" x="-6.7" y="-11.39" fill="none" rx="0" ry="0" transform="translate(151.16 134.48)"></rect><path d="M168.55 129.025q2.05 0 3.52.91 1.46.91 2.24 2.54.77 1.64.77 3.82v1.51h-11.09q.05 2.82 1.41 4.3 1.36 1.48 3.84 1.48 1.52 0 2.69-.27 1.18-.28 2.44-.83v2.14q-1.22.55-2.41.79-1.2.25-2.82.25-2.32 0-4.04-.94-1.72-.95-2.67-2.78-.96-1.83-.96-4.48 0-2.59.88-4.49.87-1.9 2.46-2.92 1.59-1.03 3.74-1.03m-.03 2q-1.95 0-3.1 1.27-1.16 1.27-1.38 3.56h8.49q-.01-1.44-.44-2.53-.43-1.09-1.31-1.7-.88-.6-2.26-.6"></path><rect width="13.61" height="16.64" x="-6.8" y="-8.32" fill="none" rx="0" ry="0" transform="translate(168.78 137.84)"></rect><path d="m200.07 145.345-2.85-9.34q-.19-.6-.36-1.18-.17-.58-.31-1.12-.14-.53-.25-.99-.11-.46-.18-.8h-.1q-.06.34-.17.8-.1.46-.24 1-.14.54-.3 1.14-.16.59-.36 1.19l-2.99 9.3h-2.74l-4.43-16.05h2.52l2.32 8.86q.23.88.45 1.73.21.86.36 1.62.16.75.23 1.31h.12l.19-.88q.11-.51.25-1.09.14-.58.3-1.16.16-.58.33-1.09l2.95-9.3h2.63l2.85 9.28q.22.71.44 1.47.21.76.38 1.47.18.71.25 1.27h.12q.06-.5.22-1.23t.37-1.61q.22-.88.45-1.79l2.34-8.86h2.48l-4.44 16.05Z"></path><rect width="22.55" height="16.05" x="-11.28" y="-8.03" fill="none" rx="0" ry="0" transform="translate(196.56 137.82)"></rect><path d="M224.1 137.315q0 1.98-.52 3.53-.51 1.56-1.48 2.63-.96 1.07-2.33 1.63-1.37.56-3.1.56-1.61 0-2.95-.56t-2.32-1.63q-.97-1.07-1.51-2.63-.53-1.55-.53-3.53 0-2.63.89-4.49.9-1.85 2.56-2.82 1.66-.98 3.96-.98 2.2 0 3.85.98 1.65.99 2.56 2.84.92 1.85.92 4.47m-12.22 0q0 1.94.51 3.36.52 1.42 1.58 2.2 1.07.77 2.76.77 1.67 0 2.75-.77 1.07-.78 1.58-2.2.52-1.42.52-3.36 0-1.91-.52-3.31-.51-1.4-1.58-2.16-1.07-.77-2.77-.77-2.5 0-3.67 1.66-1.16 1.65-1.16 4.58"></path><rect width="14.74" height="16.64" x="-7.37" y="-8.32" fill="none" rx="0" ry="0" transform="translate(217.23 137.84)"></rect><path d="M235.6 129.025q.48 0 1.01.05.52.06.93.14l-.3 2.26q-.4-.1-.88-.16-.49-.06-.91-.06-.97 0-1.82.39-.86.39-1.51 1.11-.64.73-1.01 1.74-.36 1.02-.36 2.27v8.61h-2.45v-16.05h2.02l.27 2.96h.1q.5-.9 1.2-1.64.7-.74 1.63-1.18.93-.44 2.08-.44"></path><rect width="9.24" height="16.35" x="-4.62" y="-8.18" fill="none" rx="0" ry="0" transform="translate(233.42 137.7)"></rect><path d="M243.01 145.375h-2.45v-22.79h2.45Z"></path><rect width="2.45" height="22.79" x="-1.23" y="-11.39" fill="none" rx="0" ry="0" transform="translate(242.28 134.48)"></rect><path d="M253.85 145.665q-3.05 0-4.83-2.08-1.78-2.08-1.78-6.18 0-4.14 1.82-6.26 1.81-2.12 4.83-2.12 1.28 0 2.23.34t1.64.9q.69.56 1.16 1.28h.17q-.06-.45-.12-1.24-.05-.79-.05-1.29v-6.43h2.43v22.79h-1.97l-.36-2.28h-.1q-.46.71-1.15 1.3-.7.59-1.66.93-.96.34-2.26.34m.38-2.02q2.58 0 3.65-1.46 1.07-1.47 1.07-4.35v-.44q0-3.06-1.02-4.7-1.02-1.65-3.7-1.65-2.24 0-3.36 1.73-1.11 1.72-1.11 4.69 0 2.96 1.11 4.57 1.1 1.61 3.36 1.61"></path><rect width="14.11" height="23.08" x="-7.05" y="-11.54" fill="none" rx="0" ry="0" transform="translate(254.8 134.63)"></rect></svg></svg>